<svg width="157" height="37" viewBox="0 0 157 37" fill="none" xmlns="http://www.w3.org/2000/svg">
<path d="M36.7021 6.0007V22.4677C36.4927 20.7234 36.0043 19.3278 35.3763 18.2812C32.7946 13.8853 27.7708 14.0947 27.5615 14.0947C27.4219 14.0947 27.3521 14.0947 27.2126 14.0947H18.3511V0H30.7014C34.0506 0 36.7021 2.72125 36.7021 6.0007Z" fill="#1F1F25"/>
<path d="M36.7021 22.4678V30.7014C36.7021 33.5622 34.6786 35.9345 32.0271 36.5625C31.6085 36.6323 31.1201 36.7021 30.7014 36.7021H20.1653L25.1194 29.7943L29.7943 23.3052L31.0503 21.5608C31.2596 21.2817 31.3992 21.0026 31.5387 20.6537C31.9574 19.6768 32.0271 18.5604 31.748 17.5836C31.2596 15.7694 29.6548 14.2343 27.5615 14.0948C27.7708 14.0948 35.5857 13.8157 36.7021 22.4678Z" fill="black"/>
<path d="M36.7019 22.4678C35.3761 19.1186 33.2131 17.9324 31.7478 17.5836C31.2594 15.7694 29.6545 14.2343 27.5613 14.0948C27.7706 14.0948 35.5855 13.8157 36.7019 22.4678Z" fill="#1F1F25"/>
<g opacity="0.55">
<path opacity="0.67" d="M36.7021 26.3755V30.7016C36.7021 33.5624 34.6786 35.9347 32.0271 36.5627C31.6085 36.6325 31.1201 36.7023 30.7014 36.7023H20.1653L22.0492 34.0508L25.1194 29.7945H30.6316C32.7947 29.7945 34.7484 28.8176 36.1439 27.143L36.7021 26.3755Z" fill="#1F1F25"/>
<path opacity="0.67" d="M36.7021 30.6318C36.7021 33.5624 34.6786 35.9348 32.0271 36.5628C31.6085 36.6325 31.1201 36.7023 30.7014 36.7023H20.1653L22.0492 34.0508H30.5618C32.7249 34.0508 34.6786 33.074 36.0741 31.3994L36.7021 30.6318Z" fill="#1F1F25"/>
</g>
<path opacity="0.43" d="M36.7021 6.0007V22.4677C36.4927 20.7234 36.0043 19.3278 35.3763 18.2812V7.81487C35.3763 4.53541 32.7248 1.95372 29.5152 1.95372H18.3511V0H30.7014C34.0506 0 36.7021 2.72125 36.7021 6.0007Z" fill="#1F1F25"/>
<path d="M0 30.7014V14.2344C0.209327 15.9788 0.697756 17.3743 1.32574 18.4209C3.90743 22.8168 8.93128 22.6074 9.1406 22.6074C9.28016 22.6074 9.34993 22.6074 9.48948 22.6074H18.2812V36.7021H6.0007C2.72125 36.7021 0 34.0506 0 30.7014Z" fill="#4AAB3D"/>
<path d="M0 14.2342V6.0007C0 3.1399 2.02349 0.767532 4.67497 0.139551C5.09362 0.0697756 5.58205 0 6.0007 0H16.5368L11.5828 6.90779L6.90778 13.3969L5.65182 15.1413C5.4425 15.4204 5.30295 15.6995 5.16339 16.0484C4.74474 17.0252 4.67497 18.1417 4.95407 19.1185C5.4425 20.9327 7.04734 22.4677 9.1406 22.6073C8.93128 22.6073 1.11641 22.8864 0 14.2342Z" fill="#2B8220"/>
<path d="M0 14.2344C1.32574 17.5836 3.48878 18.7698 4.95407 19.1187C5.4425 20.9328 7.04734 22.4679 9.1406 22.6074C8.93128 22.6074 1.11641 22.8865 0 14.2344Z" fill="#4AAB3D"/>
<g opacity="0.55">
<path opacity="0.67" d="M0 10.3268V6.0007C0 3.1399 2.02349 0.767532 4.67497 0.139551C5.09362 0.0697756 5.58205 0 6.0007 0H16.5368L14.6529 2.65147L11.5828 6.90779H6.07048C3.90743 6.90779 1.95372 7.88464 0.558205 9.55926L0 10.3268Z" fill="#2B8220"/>
<path opacity="0.67" d="M0 6.07048C0 3.1399 2.02349 0.767532 4.67497 0.139551C5.09362 0.0697756 5.58205 0 6.0007 0H16.5368L14.6529 2.65147H6.07048C3.90743 2.65147 1.95372 3.62833 0.558205 5.30295L0 6.07048Z" fill="#4AAB3D"/>
</g>
<path opacity="0.43" d="M0 30.7014V14.2344C0.209327 15.9788 0.697756 17.3743 1.32574 18.4209V28.8873C1.32574 32.1667 3.97721 34.7484 7.18689 34.7484H18.2812V36.7021H6.0007C2.72125 36.7021 0 34.0506 0 30.7014Z" fill="#4AAB3D"/>
<path d="M55.0344 30.9998C54.3845 30.9998 53.7347 30.9998 53.0258 30.941C52.3759 30.8821 51.667 30.8233 50.9581 30.7645C50.2492 30.7057 49.5994 30.588 48.9495 30.4704C48.2997 30.3527 47.768 30.2351 47.2363 30.1174V26.2351C47.8861 26.2939 48.6541 26.3527 49.4812 26.4115C50.3083 26.4704 51.1944 26.4704 52.1396 26.5292C53.0258 26.5292 53.9119 26.588 54.739 26.588C55.5661 26.588 56.334 26.5292 56.9248 26.3527C57.5156 26.2351 57.9882 25.9409 58.3426 25.588C58.6971 25.2351 58.8153 24.7057 58.8153 24.0586V23.1762C58.8153 22.4704 58.5789 21.8821 58.1654 21.5292C57.7519 21.1174 57.102 20.9409 56.334 20.9409H54.2073C51.8443 20.9409 50.072 20.4115 48.7723 19.4115C47.6498 18.3527 47 16.588 47 14.1174V12.9409C47 10.5292 47.7089 8.8233 49.0677 7.70565C50.4264 6.58801 52.435 6.05859 54.9753 6.05859C55.8614 6.05859 56.8067 6.11742 57.6928 6.17624C58.5789 6.29389 59.4651 6.35271 60.2922 6.47036C61.1192 6.58801 61.8281 6.70565 62.4189 6.8233V10.7057C61.4146 10.6468 60.2331 10.588 58.9925 10.5292C57.7519 10.4704 56.5704 10.4115 55.507 10.4115C54.739 10.4115 54.0892 10.4704 53.4984 10.6468C52.9076 10.7645 52.435 11.0586 52.1396 11.4704C51.8443 11.8821 51.7261 12.4115 51.7261 13.1762V13.8233C51.7261 14.7057 51.9624 15.2939 52.435 15.7057C52.9076 16.0586 53.6165 16.2939 54.6208 16.2939H57.043C58.5199 16.2939 59.7605 16.588 60.7057 17.1174C61.6509 17.6468 62.4189 18.4115 62.8915 19.3527C63.3641 20.2939 63.6004 21.4115 63.6004 22.588V23.9998C63.6004 25.9409 63.246 27.4115 62.5371 28.4115C61.8281 29.4115 60.8238 30.1174 59.5242 30.4704C58.2245 30.8233 56.7476 30.9998 55.0344 30.9998Z" fill="#1F1F25"/>
<path d="M76.7744 31C75.0612 31 73.5843 30.8235 72.3437 30.5294C71.1031 30.2353 70.0397 29.5882 69.1536 28.7647C68.3265 27.8824 67.6767 26.6471 67.2631 25C66.8496 23.3529 66.6133 21.2353 66.6133 18.5882C66.6133 15.9412 66.8496 13.8235 67.2631 12.1765C67.6767 10.5294 68.3265 9.23529 69.1536 8.35294C69.9806 7.47059 71.044 6.88235 72.3437 6.52941C73.5843 6.17647 75.0612 6 76.7744 6C78.4876 6 79.9645 6.17647 81.2051 6.47059C82.4457 6.82353 83.5091 7.41176 84.3952 8.29412C85.2223 9.17647 85.8721 10.4706 86.2857 12.1176C86.6992 13.7647 86.9355 15.8824 86.9355 18.5294C86.9355 21.1765 86.6992 23.2941 86.2857 24.9412C85.8721 26.5882 85.2223 27.8235 84.3952 28.7059C83.5682 29.5882 82.5048 30.1765 81.2051 30.4706C79.9054 30.8235 78.4285 31 76.7744 31ZM76.7744 26.5882C77.7787 26.5882 78.6058 26.4706 79.2556 26.2353C79.9054 26 80.4371 25.6471 80.8507 25.0588C81.2642 24.4706 81.5005 23.7059 81.6777 22.6471C81.855 21.5882 81.9731 20.2353 81.9731 18.5294C81.9731 16.7647 81.855 15.3529 81.6777 14.2941C81.5005 13.2353 81.2051 12.4118 80.8507 11.8824C80.4371 11.2941 79.9054 10.9412 79.2556 10.7647C78.6058 10.5882 77.7787 10.4706 76.7744 10.4706C75.8292 10.4706 75.0021 10.5882 74.3523 10.7647C73.7024 10.9412 73.1707 11.3529 72.7572 11.8824C72.3437 12.4706 72.0483 13.2353 71.8711 14.2941C71.6938 15.3529 71.5757 16.7647 71.5757 18.5294C71.5757 20.2353 71.6348 21.5882 71.812 22.6471C71.9892 23.7059 72.2846 24.5294 72.6391 25.0588C72.9935 25.5882 73.5843 26 74.2341 26.2353C74.943 26.4706 75.7701 26.5882 76.7744 26.5882Z" fill="#1F1F25"/>
<path d="M96.3288 30.7648C95.0882 30.7648 93.9657 30.5883 93.1387 30.1765C92.2525 29.7648 91.6027 29.1765 91.1891 28.2942C90.7756 27.4706 90.5393 26.2942 90.5393 24.9412V6.23535H95.4426V24.1765C95.4426 24.7059 95.5608 25.1177 95.738 25.4706C95.9152 25.8236 96.2106 26.0589 96.506 26.1765C96.8605 26.2942 97.2149 26.353 97.6285 26.353H105.427V30.8236H96.3288V30.7648Z" fill="#1F1F25"/>
<path d="M106.785 30.7648L114.524 6.23535H120.727L128.466 30.7648H123.327L121.731 25.6471H113.343L111.807 30.7648H106.785ZM114.524 21.2354H120.609L117.596 10.4706L114.524 21.2354Z" fill="#1F1F25"/>
<path d="M131.184 30.7648V6.23535H141.404C142.408 6.23535 143.294 6.353 144.121 6.58829C144.948 6.82359 145.716 7.23535 146.366 7.82359C147.016 8.41182 147.489 9.17653 147.902 10.2354C148.257 11.2354 148.434 12.5295 148.434 14.1765C148.434 15.2942 148.316 16.2942 148.079 17.0589C147.843 17.8824 147.548 18.5295 147.193 19.0001C146.839 19.5295 146.425 19.9412 145.953 20.2354C145.48 20.5295 145.007 20.8236 144.535 21.0001L149.143 30.8824H144.121L140.163 21.7648C139.868 21.7648 139.572 21.7648 139.218 21.7648C138.864 21.7648 138.509 21.7648 138.155 21.7648C137.8 21.7648 137.446 21.7648 137.091 21.7648C136.737 21.7648 136.441 21.7648 136.146 21.7059V30.8824H131.184V30.7648ZM136.087 17.7648H140.459C140.931 17.7648 141.286 17.7059 141.64 17.5883C141.995 17.4706 142.29 17.2942 142.585 17.0001C142.881 16.7059 143.058 16.353 143.176 15.8824C143.294 15.4118 143.412 14.8236 143.412 14.1177C143.412 13.4118 143.353 12.8824 143.176 12.4118C143.058 11.9412 142.822 11.5883 142.585 11.353C142.29 11.1177 141.995 10.9412 141.64 10.8236C141.286 10.7059 140.872 10.6471 140.459 10.6471H136.087V17.7648Z" fill="#1F1F25"/>
<path d="M152.038 30.7648V6.23535H156.941V30.7648H152.038Z" fill="#1F1F25"/>
</svg>
