<svg width="60" height="60" viewBox="0 0 60 60" fill="none" xmlns="http://www.w3.org/2000/svg">
<circle cx="30" cy="30" r="30" fill="white"/>
<path d="M47.1753 31.3824C46.914 31.1323 46.6036 30.9339 46.2621 30.7986C45.9205 30.6632 45.5545 30.5935 45.1848 30.5935C44.8151 30.5935 44.449 30.6632 44.1075 30.7986C43.7659 30.9339 43.4556 31.1323 43.1942 31.3824L38.3754 35.9921C38.164 35.6177 37.8511 35.3048 37.4695 35.0861C37.0879 34.8675 36.6517 34.7514 36.2069 34.7498H29.1581C28.5513 34.0473 27.7977 33.4737 26.9457 33.066C26.0936 32.6583 25.1619 32.4253 24.2103 32.3821C23.2587 32.3389 22.3081 32.4864 21.4196 32.8151C20.531 33.1438 19.724 33.6464 19.0504 34.2909L16.3448 36.879L15.5423 36.1113C15.4847 36.0562 15.4163 36.0124 15.341 35.9826C15.2657 35.9527 15.185 35.9374 15.1034 35.9374C15.0219 35.9374 14.9412 35.9527 14.8659 35.9826C14.7906 36.0124 14.7222 36.0562 14.6646 36.1113L12.1818 38.4863C12.1242 38.5415 12.0785 38.6069 12.0473 38.6789C12.0161 38.751 12 38.8282 12 38.9061C12 38.9841 12.0161 39.0613 12.0473 39.1334C12.0785 39.2054 12.1242 39.2708 12.1818 39.3259L22.1129 48.826C22.1705 48.8812 22.2389 48.9249 22.3142 48.9548C22.3895 48.9846 22.4702 49 22.5517 49C22.6332 49 22.7139 48.9846 22.7892 48.9548C22.8645 48.9249 22.9329 48.8812 22.9906 48.826L25.4733 46.451C25.531 46.3959 25.5767 46.3305 25.6079 46.2584C25.6391 46.1864 25.6552 46.1092 25.6552 46.0312C25.6552 45.9532 25.6391 45.876 25.6079 45.804C25.5767 45.732 25.531 45.6665 25.4733 45.6114L24.6708 44.8437L25.367 44.1777C25.717 43.845 26.19 43.6576 26.6835 43.6562H35.755C36.5705 43.6584 37.3783 43.5058 38.1317 43.2072C38.8851 42.9087 39.5691 42.4701 40.1441 41.9169L47.1753 35.1908C47.4368 34.9408 47.6442 34.6439 47.7857 34.3172C47.9272 33.9904 48 33.6403 48 33.2866C48 32.933 47.9272 32.5828 47.7857 32.256C47.6442 31.9293 47.4368 31.6325 47.1753 31.3824ZM22.5517 47.5666L13.4984 38.9061L15.1035 37.3707L24.1568 46.0312L22.5517 47.5666ZM46.2976 34.3512L39.2664 41.0773C38.8064 41.5198 38.2591 41.8706 37.6564 42.1094C37.0537 42.3483 36.4074 42.4704 35.755 42.4687H26.6835C26.2758 42.4676 25.872 42.5439 25.4953 42.6931C25.1187 42.8424 24.7767 43.0616 24.4893 43.3381L23.7931 44.0041L17.2225 37.7186L19.9281 35.1305C20.4867 34.5962 21.1571 34.1811 21.8954 33.9124C22.6336 33.6436 23.423 33.5274 24.2116 33.5714C25.0001 33.6153 25.77 33.8184 26.4707 34.1674C27.1713 34.5163 27.7869 35.0031 28.2768 35.5958L28.3722 35.7115C28.4303 35.7819 28.5043 35.8388 28.5886 35.8779C28.673 35.917 28.7655 35.9374 28.8593 35.9373H36.2069C36.5361 35.9373 36.8519 36.0625 37.0847 36.2852C37.3175 36.5079 37.4483 36.8099 37.4483 37.1249C37.4483 37.4398 37.3175 37.7419 37.0847 37.9646C36.8519 38.1873 36.5361 38.3124 36.2069 38.3124H27.5173C27.3526 38.3124 27.1948 38.3749 27.0784 38.4863C26.962 38.5976 26.8966 38.7487 26.8966 38.9061C26.8966 39.0636 26.962 39.2146 27.0784 39.326C27.1948 39.4373 27.3526 39.4999 27.5173 39.4999H36.2069C36.814 39.4981 37.3994 39.283 37.8517 38.8956C38.3041 38.5082 38.592 37.9754 38.6608 37.3984L44.0719 32.222C44.3717 31.9482 44.7703 31.7954 45.1848 31.7954C45.5993 31.7954 45.9979 31.9482 46.2977 32.222C46.4438 32.3618 46.5597 32.5278 46.6388 32.7104C46.7179 32.8931 46.7586 33.0889 46.7586 33.2866C46.7586 33.4843 46.7179 33.6801 46.6388 33.8627C46.5597 34.0454 46.4438 34.2114 46.2976 34.3512Z" fill="#4AAB3D"/>
<path d="M22.3928 23.099C22.3842 23.1106 22.3711 23.1172 22.3632 23.1295C22.3612 23.1328 22.3613 23.1365 22.3594 23.1398C20.4716 25.4333 19.4461 28.2681 19.4483 31.1873C19.4483 31.2844 19.4489 31.381 19.4559 31.4778C19.4668 31.6277 19.5367 31.768 19.6515 31.8706C19.7662 31.9731 19.9174 32.0302 20.0744 32.0304C20.089 32.0304 20.1035 32.0298 20.1181 32.0289C20.1994 32.0235 20.2788 32.0029 20.3518 31.9681C20.4247 31.9334 20.4898 31.8852 20.5433 31.8264C20.5968 31.7675 20.6377 31.6992 20.6636 31.6253C20.6895 31.5513 20.6999 31.4732 20.6942 31.3955C20.6891 31.3259 20.6897 31.2566 20.6897 31.1873C20.6902 28.6916 21.5182 26.2604 23.0545 24.2433C24.8098 25.3398 25.8372 26.399 25.8795 27.1881C25.8146 27.9388 25.5667 28.6644 25.1557 29.3069C24.973 29.6678 24.7811 30.0476 24.6041 30.4544C24.5728 30.5264 24.5566 30.6036 24.5565 30.6816C24.5564 30.7595 24.5723 30.8368 24.6034 30.9089C24.6661 31.0545 24.7867 31.1703 24.9387 31.2308C25.014 31.2607 25.0947 31.2762 25.1762 31.2764C25.2577 31.2765 25.3385 31.2613 25.4138 31.2315C25.5661 31.1715 25.6871 31.0561 25.7504 30.9107C25.9179 30.5257 26.1001 30.1662 26.2732 29.8244C26.7885 29.0073 27.0795 28.0788 27.119 27.1252C27.0549 25.9276 25.9429 24.6471 23.8354 23.3145C24.7857 22.2854 25.9145 21.4209 27.172 20.7588C28.3809 23.0123 29.8355 24.2017 31.4239 24.2017C31.5394 24.2017 31.6548 24.1955 31.7697 24.1831C32.8701 24.1161 33.9203 23.7187 34.771 23.0475C35.3174 22.6433 35.5438 22.4763 36.7967 22.895C37.9669 23.2847 39.2004 22.7961 40.318 21.5282C41.2853 22.1911 42.1481 22.9836 42.8798 23.8812C42.1327 24.6445 41.5447 25.5372 41.1476 26.5115C40.6181 27.6172 40.2602 28.2982 39.6019 28.3574C39.1743 28.3828 38.7455 28.3811 38.3181 28.3522C36.6803 28.275 34.6434 28.1837 33.1883 30.92C32.8584 31.5365 32.6367 32.2008 32.5322 32.8862C32.5094 33.0422 32.5522 33.2004 32.6514 33.3261C32.7505 33.4518 32.8977 33.5347 33.0607 33.5565C33.0895 33.5605 33.1186 33.5624 33.1477 33.5623C33.2973 33.5621 33.4417 33.5103 33.5545 33.4163C33.6672 33.3224 33.7407 33.1926 33.7614 33.0509C33.8458 32.4948 34.0264 31.956 34.2957 31.4566C35.3856 29.4069 36.6548 29.4669 38.259 29.5382C38.7441 29.5707 39.231 29.5713 39.7162 29.54C41.1239 29.413 41.7098 28.1892 42.2762 27.0058C42.597 26.2294 43.0464 25.5074 43.607 24.8675C44.4371 26.1241 45.0109 27.5198 45.2981 28.9807C45.313 29.0574 45.3436 29.1305 45.3881 29.1959C45.4325 29.2613 45.49 29.3177 45.5573 29.3618C45.6245 29.406 45.7002 29.437 45.78 29.4531C45.8598 29.4692 45.9421 29.4702 46.0223 29.4558C46.1024 29.4415 46.1789 29.4122 46.2472 29.3696C46.3155 29.327 46.3744 29.272 46.4205 29.2076C46.4665 29.1432 46.4989 29.0708 46.5157 28.9945C46.5324 28.9181 46.5333 28.8394 46.5183 28.7627C45.9469 25.8739 44.3725 23.2543 42.0504 21.3283C39.7283 19.4023 36.7945 18.2828 33.7241 18.151V17.495C33.7242 17.1624 33.822 16.8366 34.0063 16.5547C34.1907 16.2728 34.4542 16.0461 34.7667 15.9006C35.1121 16.2855 35.5403 16.5945 36.022 16.8064C36.5038 17.0182 37.0277 17.128 37.558 17.1282C38.0608 17.1241 38.5593 17.0384 39.0321 16.8748C39.8238 16.6097 40.5747 16.2441 41.2646 15.7876C41.5632 15.5312 41.9306 15.3594 42.3256 15.2915C42.7206 15.2236 43.1276 15.2623 43.5009 15.4032C43.6266 15.4341 43.7593 15.4264 43.8802 15.3814C44.0012 15.3364 44.1044 15.2562 44.1752 15.1522C44.2461 15.0481 44.281 14.9255 44.2752 14.8014C44.2694 14.6774 44.2231 14.5582 44.1428 14.4607C44.0098 14.2989 40.8493 10.5116 37.8071 11.0535C34.8706 11.5771 34.5266 13.2809 34.3834 14.7585C33.8742 14.9649 33.4322 15.2982 33.1035 15.7236C32.7748 15.2981 32.3327 14.9647 31.8234 14.7583C31.6802 13.2808 31.3362 11.5771 28.3998 11.0535C25.3573 10.5088 22.1971 14.2992 22.0641 14.4606C21.9838 14.5582 21.9375 14.6774 21.9317 14.8014C21.9259 14.9254 21.9608 15.0481 22.0317 15.1521C22.1025 15.2562 22.2057 15.3363 22.3267 15.3814C22.4476 15.4264 22.5803 15.434 22.706 15.4032C23.0793 15.2622 23.4863 15.2235 23.8813 15.2914C24.2763 15.3593 24.6437 15.5311 24.9423 15.7876C25.6322 16.244 26.3831 16.6097 27.1748 16.8748C27.6476 17.0386 28.1461 17.1242 28.6489 17.1282C29.1792 17.128 29.7031 17.0182 30.1849 16.8063C30.6667 16.5944 31.0949 16.2854 31.4402 15.9005C31.7528 16.046 32.0162 16.2727 32.2006 16.5546C32.3849 16.8366 32.4827 17.1624 32.4828 17.495V18.1397C30.5271 18.2236 28.6133 18.7101 26.872 19.5659C25.1307 20.4218 23.6029 21.6269 22.3928 23.099ZM38.0344 12.2207C39.3943 11.9763 41.02 13.1061 42.1268 14.1177C41.5657 14.2292 41.0383 14.4606 40.5839 14.7946C39.9779 15.1978 39.3177 15.5205 38.6212 15.754C38.1916 15.9333 37.7185 15.9951 37.2544 15.9326C36.7903 15.8701 36.3535 15.6857 35.9923 15.4L37.6328 14.7413C37.7082 14.7113 37.7767 14.6673 37.8343 14.6119C37.8918 14.5565 37.9374 14.4908 37.9684 14.4186C37.9994 14.3463 38.0152 14.2689 38.0149 14.1908C38.0145 14.1126 37.9981 14.0354 37.9664 13.9633C37.9348 13.8913 37.8887 13.826 37.8306 13.7711C37.7725 13.7161 37.7037 13.6727 37.6281 13.6433C37.5524 13.6139 37.4715 13.599 37.3898 13.5996C37.3081 13.6001 37.2274 13.6161 37.1522 13.6466L35.6986 14.2303C35.8711 13.2146 36.307 12.5289 38.0344 12.2207ZM27.5857 15.754C26.8892 15.5205 26.229 15.1978 25.6231 14.7946C25.1683 14.4601 24.6401 14.2286 24.0783 14.1174C25.1833 13.1056 26.8041 11.9775 28.1725 12.2207C29.9 12.5289 30.3358 13.2147 30.5083 14.2302L29.0547 13.6466C28.9796 13.6164 28.899 13.6006 28.8175 13.6002C28.736 13.5998 28.6552 13.6148 28.5797 13.6443C28.5043 13.6738 28.4356 13.7172 28.3777 13.772C28.3198 13.8269 28.2738 13.8921 28.2422 13.964C28.2106 14.0359 28.1942 14.113 28.1938 14.191C28.1934 14.2689 28.209 14.3462 28.2399 14.4184C28.2707 14.4906 28.316 14.5562 28.3734 14.6116C28.4307 14.667 28.4989 14.7111 28.5741 14.7413L30.2148 15.4C29.8536 15.6856 29.4167 15.8698 28.9526 15.9323C28.4885 15.9948 28.0154 15.9331 27.5857 15.754ZM37.2058 21.7736C35.4492 21.1874 34.8003 21.5251 34.0117 22.1079C33.3405 22.6442 32.5057 22.9582 31.6323 23.0029C30.1618 23.1641 28.9781 21.5328 28.282 20.2448C30.0409 19.5355 31.9471 19.2237 33.8525 19.3338C35.7579 19.4438 37.6111 19.9728 39.268 20.8794C38.7301 21.4587 37.9714 22.0294 37.2058 21.7736Z" fill="#4AAB3D"/>
</svg>
