<svg width="60" height="60" viewBox="0 0 60 60" fill="none" xmlns="http://www.w3.org/2000/svg">
<circle cx="30" cy="30" r="30" fill="white"/>
<path d="M42.1688 40.943C42.8916 40.3542 43.3564 39.4531 43.3564 38.4434C43.3564 36.6738 41.9336 35.2347 40.184 35.2347C38.4344 35.2347 37.0116 36.6738 37.0116 38.4434C37.0116 39.4531 37.4764 40.3542 38.1992 40.943C37.0709 41.3591 36.1049 42.1158 35.4254 43.0939V42.7217C35.4254 40.1836 33.825 38.0226 31.5943 37.1995C32.0802 36.8043 32.4498 36.2685 32.6391 35.6524C32.8542 35.7251 33.0795 35.7695 33.3105 35.7695C34.4769 35.7695 35.4254 34.8101 35.4254 33.6304V32.3768L37.0613 34.0315C37.395 34.3694 37.7915 34.5887 38.2071 34.6641C38.3398 34.6882 38.472 34.7005 38.6031 34.7005C39.162 34.7005 39.6902 34.4817 40.0936 34.0737C40.4922 33.6694 40.7127 33.1325 40.7127 32.5608C40.7127 31.9891 40.4922 31.4522 40.1243 31.0826L36.1276 26.2616C35.5455 25.5594 34.8634 24.9513 34.1005 24.4551L28.8232 21.0233C28.0724 20.5351 27.2069 20.2244 26.3208 20.1254L23.8876 19.8522L24.5411 19.1912L20.0924 14.6915L13 21.8651L17.4487 26.3648L17.8326 25.9765L18.4147 27.1536C18.889 28.113 19.5097 28.9836 20.2594 29.7419C20.6216 30.1083 21.0155 30.4489 21.43 30.7543L26.1738 34.2438C26.2631 34.3095 26.3572 34.3657 26.4529 34.4176C26.445 34.5112 26.4371 34.6053 26.4371 34.6999C26.4371 35.7096 26.9018 36.6107 27.6246 37.1995C25.3939 38.0226 23.7934 40.1836 23.7934 42.7217V43.0934C23.114 42.1153 22.148 41.3591 21.0197 40.9425C21.7425 40.3542 22.2073 39.4531 22.2073 38.4434C22.2073 36.6738 20.7845 35.2347 19.0349 35.2347C17.2853 35.2347 15.8625 36.6738 15.8625 38.4434C15.8625 39.4531 16.3273 40.3542 17.0501 40.943C14.8194 41.7661 13.2189 43.9271 13.2189 46.4652V47H24.8509V46.4652C24.8509 45.2812 24.5004 44.1801 23.9034 43.2565H35.316C34.7185 44.1801 34.368 45.2812 34.368 46.4652V47H46V46.4652C46 43.9271 44.3995 41.7661 42.1688 40.943ZM16.92 38.4434C16.92 37.2637 17.8685 36.3043 19.0349 36.3043C20.2013 36.3043 21.1498 37.2637 21.1498 38.4434C21.1498 39.6232 20.2013 40.5826 19.0349 40.5826C17.8685 40.5826 16.92 39.6232 16.92 38.4434ZM20.5074 41.8928L19.0349 43.5308L17.5624 41.8928C18.0271 41.7393 18.5204 41.6521 19.0349 41.6521C19.5493 41.6521 20.0427 41.7393 20.5074 41.8928ZM14.3054 45.9304C14.4714 44.4202 15.3312 43.1196 16.5536 42.3607L19.0349 45.1213L21.5157 42.3607C22.7381 43.1196 23.5983 44.4202 23.7638 45.9304H14.3054ZM29.9891 31.5164C29.859 31.1479 29.6507 30.8094 29.3578 30.5425L25.487 27.0188L29.5714 28.1456C29.8003 28.2087 30.0166 28.3082 30.2143 28.4413C30.8287 28.8563 31.1956 29.55 31.1956 30.297V31.9255C30.8324 31.7121 30.4247 31.5693 29.9891 31.5164ZM39.3454 31.8046C39.5453 32.0068 39.6553 32.2752 39.6553 32.5608C39.6553 32.8464 39.5453 33.1148 39.3454 33.317C39.0964 33.5694 38.7511 33.6753 38.3948 33.6116C38.1394 33.5651 37.9353 33.4031 37.8095 33.2753L35.4254 30.8645V27.0787L39.3454 31.8046ZM14.4952 21.8651L20.0924 16.2039L23.0458 19.1912L17.4487 24.8524L14.4952 21.8651ZM22.0523 29.8895C21.6822 29.6168 21.3301 29.313 21.007 28.9863C20.3377 28.3093 19.7841 27.5322 19.3606 26.6755L18.6209 25.1797L22.9306 20.8207L26.2044 21.1891C26.9299 21.2704 27.6378 21.5244 28.2522 21.9239L33.5294 25.3556C33.8239 25.5471 34.1026 25.761 34.3685 25.9894V33.6304C34.3685 34.2202 33.8943 34.6999 33.3111 34.6999C33.1202 34.6999 32.9362 34.647 32.7749 34.5507C32.7474 33.9539 32.5613 33.3988 32.2536 32.9298V30.2965C32.2536 29.1911 31.7106 28.1649 30.8012 27.5515C30.5083 27.3541 30.1884 27.2065 29.85 27.1135L24.4623 25.6273C24.3031 25.584 24.1334 25.6171 24.0023 25.7182C23.8706 25.8198 23.7934 25.9765 23.7934 26.1434V26.6782C23.7934 26.83 23.8569 26.9744 23.9685 27.0755L28.6503 31.3372C28.9237 31.5864 29.0807 31.9426 29.0807 32.3153C29.0807 33.04 28.497 33.6304 27.7806 33.6304H27.5606C27.2841 33.6304 27.0197 33.5432 26.7961 33.379L22.0523 29.8895ZM27.4945 34.6999C27.4945 34.6983 27.4951 34.6967 27.4951 34.6946C27.5173 34.6951 27.5384 34.6999 27.5606 34.6999H27.7806C28.975 34.6999 29.9542 33.7935 30.1075 32.6271C31.0328 32.8549 31.7244 33.6945 31.7244 34.6999C31.7244 35.8797 30.7758 36.8391 29.6094 36.8391C28.4431 36.8391 27.4945 35.8797 27.4945 34.6999ZM31.082 38.1493L29.6094 39.7873L28.1369 38.1493C28.6017 37.9958 29.095 37.9086 29.6094 37.9086C30.1239 37.9086 30.6172 37.9958 31.082 38.1493ZM24.88 42.1869C25.046 40.6767 25.9057 39.3761 27.1281 38.6172L29.6094 41.3778L32.0902 38.6172C33.3127 39.3761 34.1729 40.6767 34.3384 42.1869H24.88ZM38.0691 38.4434C38.0691 37.2637 39.0176 36.3043 40.184 36.3043C41.3504 36.3043 42.2989 37.2637 42.2989 38.4434C42.2989 39.6232 41.3504 40.5826 40.184 40.5826C39.0176 40.5826 38.0691 39.6232 38.0691 38.4434ZM41.6565 41.8928L40.184 43.5308L38.7115 41.8928C39.1762 41.7393 39.6695 41.6521 40.184 41.6521C40.6985 41.6521 41.1918 41.7393 41.6565 41.8928ZM35.4545 45.9304C35.6206 44.4202 36.4803 43.1196 37.7027 42.3607L40.184 45.1213L42.6648 42.3607C43.8872 43.1196 44.7474 44.4202 44.9129 45.9304H35.4545Z" fill="#4AAB3D"/>
<path d="M45.8451 14.7562L45.0975 14L41.2415 17.9002L40.5578 17.2087L39.8102 17.9649L41.2415 19.4126L45.8451 14.7562Z" fill="#4AAB3D"/>
<path d="M41.2415 24.0042C42.116 24.0042 42.8276 23.2844 42.8276 22.3999C42.8276 21.5153 42.116 20.7955 41.2415 20.7955C40.3669 20.7955 39.6553 21.5153 39.6553 22.3999C39.6553 23.2844 40.3669 24.0042 41.2415 24.0042ZM41.2415 21.8651C41.5328 21.8651 41.7702 22.1052 41.7702 22.3999C41.7702 22.6945 41.5328 22.9347 41.2415 22.9347C40.9501 22.9347 40.7127 22.6945 40.7127 22.3999C40.7127 22.1052 40.9501 21.8651 41.2415 21.8651Z" fill="#4AAB3D"/>
<path d="M32.2531 17.5868H38.5978V18.6564H32.2531V17.5868Z" fill="#4AAB3D"/>
<path d="M32.2531 21.8651H36.4829V22.9347H32.2531V21.8651Z" fill="#4AAB3D"/>
<path d="M37.5404 21.8651H38.5978V22.9347H37.5404V21.8651Z" fill="#4AAB3D"/>
<path d="M32.2531 19.7259H38.5978V20.7955H32.2531V19.7259Z" fill="#4AAB3D"/>
</svg>
